<?xml version="1.0" encoding="UTF-8"?>
<!DOCTYPE svg PUBLIC "-//W3C//DTD SVG 1.1//EN" "http://www.w3.org/Graphics/SVG/1.1/DTD/svg11.dtd">
<!-- Creator: CorelDRAW 2021 (64-Bit) -->
<svg xmlns="http://www.w3.org/2000/svg" xml:space="preserve" width="8.14398in" height="2.41617in" version="1.1" style="shape-rendering:geometricPrecision; text-rendering:geometricPrecision; image-rendering:optimizeQuality; fill-rule:evenodd; clip-rule:evenodd"
viewBox="0 0 8142.19 2415.64"
 xmlns:xlink="http://www.w3.org/1999/xlink"
 xmlns:xodm="http://www.corel.com/coreldraw/odm/2003">
 <defs>
  <style type="text/css">
   <![CDATA[
    .fil0 {fill:#6B809C}
    .fil5 {fill:url(#id0)}
    .fil6 {fill:url(#id1)}
    .fil9 {fill:url(#id2)}
    .fil3 {fill:url(#id3)}
    .fil4 {fill:url(#id4)}
    .fil14 {fill:url(#id5)}
    .fil11 {fill:url(#id6)}
    .fil1 {fill:url(#id7)}
    .fil2 {fill:url(#id8)}
    .fil12 {fill:url(#id9)}
    .fil8 {fill:url(#id10)}
    .fil13 {fill:url(#id11)}
    .fil7 {fill:url(#id12)}
    .fil15 {fill:url(#id13)}
    .fil10 {fill:url(#id14)}
   ]]>
  </style>
  <linearGradient id="id0" gradientUnits="userSpaceOnUse" x1="2672.58" y1="2382.09" x2="2632.58" y2="1438.26">
   <stop offset="0" style="stop-opacity:1; stop-color:#34828A"/>
   <stop offset="1" style="stop-opacity:1; stop-color:#204044"/>
  </linearGradient>
  <linearGradient id="id1" gradientUnits="userSpaceOnUse" xlink:href="#id0" x1="6577.41" y1="2414.99" x2="6537.56" y2="1471.17">
  </linearGradient>
  <linearGradient id="id2" gradientUnits="userSpaceOnUse" x1="4700.05" y1="2411.6" x2="4719.49" y2="1533.6">
   <stop offset="0" style="stop-opacity:1; stop-color:#34828A"/>
   <stop offset="0.560784" style="stop-opacity:1; stop-color:#2A6167"/>
   <stop offset="1" style="stop-opacity:1; stop-color:#204044"/>
  </linearGradient>
  <linearGradient id="id3" gradientUnits="userSpaceOnUse" xlink:href="#id0" x1="3154.97" y1="1223.8" x2="4300.83" y2="812.92">
  </linearGradient>
  <linearGradient id="id4" gradientUnits="userSpaceOnUse" xlink:href="#id0" x1="7059.8" y1="1256.71" x2="8205.8" y2="845.83">
  </linearGradient>
  <linearGradient id="id5" gradientUnits="userSpaceOnUse" xlink:href="#id0" x1="1351.89" y1="2182.34" x2="2299.88" y2="1866.02">
  </linearGradient>
  <linearGradient id="id6" gradientUnits="userSpaceOnUse" xlink:href="#id0" x1="4931.94" y1="914.51" x2="4554.38" y2="1061.2">
  </linearGradient>
  <linearGradient id="id7" gradientUnits="userSpaceOnUse" xlink:href="#id0" x1="3868.77" y1="313.52" x2="3578.38" y2="848.02">
  </linearGradient>
  <linearGradient id="id8" gradientUnits="userSpaceOnUse" xlink:href="#id0" x1="7773.74" y1="346.44" x2="7483.35" y2="880.94">
  </linearGradient>
  <linearGradient id="id9" gradientUnits="userSpaceOnUse" xlink:href="#id0" x1="709.81" y1="364.49" x2="1674.74" y2="966.55">
  </linearGradient>
  <linearGradient id="id10" gradientUnits="userSpaceOnUse" xlink:href="#id0" x1="7110.96" y1="223.61" x2="7725.54" y2="231.52">
  </linearGradient>
  <linearGradient id="id11" gradientUnits="userSpaceOnUse" xlink:href="#id0" x1="1575.04" y1="373.07" x2="1590.31" y2="-168.01">
  </linearGradient>
  <linearGradient id="id12" gradientUnits="userSpaceOnUse" xlink:href="#id0" x1="3205.98" y1="190.7" x2="3820.57" y2="198.61">
  </linearGradient>
  <linearGradient id="id13" gradientUnits="userSpaceOnUse" xlink:href="#id0" x1="1784.3" y1="1461.94" x2="1012.11" y2="748.91">
  </linearGradient>
  <linearGradient id="id14" gradientUnits="userSpaceOnUse" xlink:href="#id0" x1="4985.4" y1="1160.06" x2="4970.54" y2="1729.8">
  </linearGradient>
 </defs>
 <g id="Layer_x0020_1">
  <metadata id="CorelCorpID_0Corel-Layer"/>
  <g id="_2483622767568">
   <path class="fil0" d="M2412.07 0c0,0 75.12,400.92 480.98,403.32l232.46 0c173.09,0 288.48,5.54 346.18,16.09 78.23,13.88 142.59,49.36 193.06,105.39 51.04,56.6 76.56,128.16 76.56,214.7 66.65,-645.8 -299.78,-729.43 -432.83,-738.69 -15.29,-0.2 -30.89,-0.4 -46.85,-0.52 -25.1,-0.2 -51.07,-0.3 -77.89,-0.3l-771.68 0z"/>
   <path class="fil0" d="M6316.99 32.89c0,0 75.13,400.9 481,403.31l232.44 0c173.09,0 288.5,5.55 346.18,16.09 78.22,13.87 142.59,49.37 193.06,105.41 51.04,56.61 76.56,128.16 76.56,214.71 66.65,-645.82 -299.79,-729.43 -432.85,-738.72 -15.26,-0.2 -30.88,-0.36 -46.83,-0.5 -25.1,-0.2 -51.08,-0.3 -77.89,-0.3l-771.68 0z"/>
   <path class="fil1" d="M3308.48 0.82c133.04,9.26 499.47,92.89 432.83,738.69 0,70.46 -18.31,132.59 -54.38,185.31 -36.04,53.24 -86.52,92.06 -150.34,117.03 -48.07,18.8 -132.03,30.39 -251.67,34.93 884.38,3.6 950.47,-320.37 949.66,-421.1 -0.7,-9.94 -1.55,-19.77 -2.57,-29.49 -14.42,-141.52 -58.73,-260.66 -132.88,-357.13 -92.09,-119.82 -206.37,-197.5 -343.41,-233 -75.44,-20.28 -224.64,-32.15 -447.24,-35.25z"/>
   <path class="fil2" d="M7213.39 33.69c133.06,9.29 499.49,92.89 432.85,738.72 0,70.44 -18.31,132.59 -54.38,185.29 -36.04,53.26 -86.54,92.08 -150.34,117.05 -48.05,18.8 -132.03,30.37 -251.67,34.93 884.37,3.58 950.47,-320.4 949.66,-421.1 -0.7,-9.94 -1.57,-19.78 -2.55,-29.5 -14.46,-141.5 -58.74,-260.65 -132.9,-357.13 -92.07,-119.84 -206.37,-197.49 -343.4,-233.02 -75.45,-20.26 -224.64,-32.12 -447.27,-35.24z"/>
   <path class="fil3" d="M4234.58 655.69c0.81,100.73 -65.28,424.69 -949.66,421.1 -39.14,1.5 -82.12,2.25 -128.9,2.25l-262.97 0c-168.71,4.13 -283.1,57.34 -357.84,138.92l1546.07 0c27.97,-34.81 53.36,-73.52 76.11,-116.19 53.26,-99.3 79.89,-222.46 79.89,-368.92 0,-26.4 -0.9,-52.12 -2.69,-77.16zm-1822.51 948.25l0 336c2.2,-554.8 480.98,-455.92 480.98,-455.92l313.45 0c218.03,0 384.47,-11.65 499.3,-34.4 84.32,-18.3 167.54,-55.48 249.09,-112.62 26.94,-18.87 52.35,-40.04 76.24,-63.53l-1538.28 0c-58.79,93 -80.79,210.12 -80.79,330.47z"/>
   <path class="fil4" d="M8142.19 765.75l0 -1.24c-0.03,-25.97 -0.92,-51.27 -2.69,-75.93 0.81,100.71 -65.29,424.69 -949.66,421.1 -39.14,1.5 -82.11,2.24 -128.89,2.24l-262.96 0c-144.81,3.54 -249.59,43.25 -323.64,106.03l1523.66 0 0 17.76c23.35,-30.8 44.79,-64.47 64.3,-101.05 53.25,-99.31 79.88,-222.47 79.88,-368.91zm-1721.19 507.72c-76.29,97.38 -104.01,228.33 -104.01,363.34l0 336.01c2.2,-554.82 481,-455.92 481,-455.92l313.44 0c218.03,0 384.47,-11.64 499.3,-34.4 84.32,-18.31 167.54,-55.46 249.09,-112.61 38.97,-27.31 74.77,-59.44 107.34,-96.43l-1546.16 0z"/>
   <path class="fil5" d="M2893.05 2382.75l0 -898.73c0,0 -478.78,-98.89 -480.98,455.92l0 442.81 480.98 0z"/>
   <path class="fil6" d="M6316.99 2415.64l481 0 0 -898.74c0,0 -478.8,-98.9 -481,455.92l0 442.82z"/>
   <path class="fil7" d="M2412.07 0c0,0 75.12,400.92 480.98,403.32l232.46 0c173.09,0 288.48,5.54 346.18,16.09 78.23,13.88 142.59,49.36 193.06,105.39 51.04,56.6 76.56,128.16 76.56,214.7 66.65,-645.8 -299.78,-729.43 -432.83,-738.69 -15.29,-0.2 -30.89,-0.4 -46.85,-0.52 -25.1,-0.2 -51.07,-0.3 -77.89,-0.3l-771.68 0z"/>
   <path class="fil8" d="M7094.94 32.89l-1.25 0 -1.25 0 -1.26 0 -1.26 0 -1.26 0 -771.68 0c0,0 75.13,400.9 481,403.31l232.44 0c173.09,0 288.5,5.55 346.18,16.09 78.22,13.87 142.59,49.37 193.06,105.41 51.04,56.61 76.56,128.16 76.56,214.71 66.65,-645.82 -299.79,-729.43 -432.85,-738.72 -15.26,-0.2 -30.88,-0.36 -46.83,-0.5 -23.14,-0.18 -47.02,-0.29 -71.62,-0.3z"/>
   <path class="fil9" d="M4476.08 2003.54l0 408.32 470.52 0 0 -989.24c0,0 -364.19,10.24 -470.52,580.92z"/>
   <path class="fil10" d="M4476.08 1315.43l0 0.7 0 687.41c106.33,-570.68 470.52,-580.92 470.52,-580.92l318.06 0c329.82,0 498.08,-68.95 582.28,-149.15l-1368.12 0c-1.75,13.28 -2.71,27.23 -2.74,41.96zm1416.02 -97.47c12.59,-20.68 20.97,-41.25 26.38,-60.79l0 -128.63 -971.88 0c0,0 -372.28,-39.25 -454.54,189.42l1400.04 0z"/>
   <path class="fil11" d="M4476.08 965.95l0 252.01 15.98 0c82.26,-228.67 454.54,-189.42 454.54,-189.42l0 -550.73 408.87 0c523.58,0 677.84,-139.71 716.96,-252.75l0 -141.33 -976.36 0 -121.34 0c-180.5,23.66 -498.63,166.85 -498.63,882.22zm0 307.52l0 41.96c0.03,-14.73 1,-28.68 2.74,-41.96l-2.74 0z"/>
   <path class="fil12" d="M-0 1182.94l0 0.55 0 0.55 0 0.55 0 0.55c0.02,10.98 0.14,21.92 0.38,32.82l142.52 0c182.03,-365.42 399.41,-440.62 399.41,-440.62 28.72,-71.8 67.09,-133.6 115.05,-185.44 119.82,-128.38 280.81,-192.55 483.55,-192.55 133.71,0 244.97,32.63 334.3,97.88 49.05,35.83 89.54,78.92 121.5,129.17 -116.84,-227.13 -407.16,-644.58 -928.82,-544.09 -26.65,10.64 -52.25,22.36 -76.85,35.14 -193.1,98.96 -340.18,241.78 -440.73,427.91 -100.04,185.62 -150.31,398.5 -150.31,637.58zm2.58 90.52c4.4,76.45 14.44,150.82 30.13,223.14 25.84,-83.42 54.2,-157.43 83.86,-223.14l-113.99 0z"/>
   <path class="fil13" d="M658.33 82.32c521.67,-100.49 811.97,316.96 928.84,544.09 26.22,41.28 46.71,87.38 61.41,138.27l460.54 -86.13c-45.98,-211.28 -149.22,-376.54 -309.7,-496.36 -159.91,-119.28 -382.96,-179.18 -668.07,-179.18 -182.62,0 -340.39,26.34 -473.02,79.32z"/>
   <path class="fil14" d="M660.04 1768.18c-103.06,-115.77 -162.18,-280.91 -177.7,-494.71l-370.04 0c-28.12,63.32 -55,134.18 -79.6,213.58 22.47,103.61 56.5,202.99 102.09,298.27 89.86,187.73 224.12,331.62 402.77,432.71 178.64,100.57 388.32,150.84 628.48,150.84 188.82,0 375.5,-35.83 560.03,-106.99 184.53,-71.66 325.2,-154.58 422.53,-248.71l0 -739.7 -60.94 0c-81.38,198.34 -248.72,503.78 -528.36,581.47 -40.46,22 -84.01,42.16 -130.65,60.34 -97.89,37.99 -195.24,57.22 -292.57,57.22 -196.3,0 -355.17,-67.91 -476.06,-204.32zm-180.72 -550.23c-0.76,-20.67 -1.13,-41.77 -1.13,-63.28 0,-151.25 21.4,-280.13 64.13,-386.9 0,0 -221.18,76.49 -404.15,450.17l341.16 0zm1669.29 0l0 -119.97c0,0 -12.47,47.96 -39.24,119.97l39.24 0z"/>
   <path class="fil15" d="M1148.94 1097.98l0 119.97 960.43 0c26.76,-72.01 39.24,-119.97 39.24,-119.97l-999.67 0zm0 175.49l0 211.76 531.12 0 0 291.51c-36.5,28.14 -76.77,54.25 -120.75,78.19 279.63,-77.68 446.97,-383.12 528.36,-581.47l-938.73 0z"/>
  </g>
 </g>
</svg>
